<?xml version="1.0" encoding="UTF-8"?>
<svg version="1.1" xmlns="http://www.w3.org/2000/svg" width="192" height="192">
<path d="M0 0 C1.51930131 -0.01140882 3.03856617 -0.03167993 4.55761719 -0.06152344 C26.60584005 -0.49374684 44.68430122 7.08746709 62.99584961 19.29516602 C62.99584961 19.95516602 62.99584961 20.61516602 62.99584961 21.29516602 C63.55272461 21.54266602 64.10959961 21.79016602 64.68334961 22.04516602 C70.10540115 24.97600469 74.42009369 29.30631068 77.99584961 34.29516602 C77.99584961 34.95516602 77.99584961 35.61516602 77.99584961 36.29516602 C78.65584961 36.29516602 79.31584961 36.29516602 79.99584961 36.29516602 C82.94289362 40.44574897 85.45496604 44.88643816 87.99584961 49.29516602 C88.71901367 50.54620117 88.71901367 50.54620117 89.45678711 51.82250977 C93.43398906 59.23226499 95.68591708 67.24593957 97.99584961 75.29516602 C98.17688232 75.87758057 98.35791504 76.45999512 98.54443359 77.06005859 C99.61301786 82.35096662 99.26298923 87.9131 99.29101562 93.29931641 C99.30242444 94.81861771 99.32269556 96.33788258 99.35253906 97.85693359 C99.78476247 119.90515646 92.20354853 137.98361763 79.99584961 156.29516602 C79.33584961 156.29516602 78.67584961 156.29516602 77.99584961 156.29516602 C77.74834961 156.85204102 77.50084961 157.40891602 77.24584961 157.98266602 C74.31501094 163.40471756 69.98470494 167.7194101 64.99584961 171.29516602 C64.33584961 171.29516602 63.67584961 171.29516602 62.99584961 171.29516602 C62.99584961 171.95516602 62.99584961 172.61516602 62.99584961 173.29516602 C58.84526666 176.24221002 54.40457746 178.75428244 49.99584961 181.29516602 C49.16182617 181.77727539 48.32780273 182.25938477 47.46850586 182.75610352 C40.05875064 186.73330546 32.04507605 188.98523348 23.99584961 191.29516602 C23.41343506 191.47619873 22.83102051 191.65723145 22.23095703 191.84375 C16.940049 192.91233426 11.37791562 192.56230563 5.99169922 192.59033203 C4.47239791 192.60174085 2.95313305 192.62201196 1.43408203 192.65185547 C-20.61414083 193.08407887 -38.69260201 185.50286494 -57.00415039 173.29516602 C-57.00415039 172.63516602 -57.00415039 171.97516602 -57.00415039 171.29516602 C-57.56102539 171.04766602 -58.11790039 170.80016602 -58.69165039 170.54516602 C-64.11370193 167.61432734 -68.42839448 163.28402135 -72.00415039 158.29516602 C-72.00415039 157.63516602 -72.00415039 156.97516602 -72.00415039 156.29516602 C-72.66415039 156.29516602 -73.32415039 156.29516602 -74.00415039 156.29516602 C-76.9511944 152.14458306 -79.46326682 147.70389387 -82.00415039 143.29516602 C-82.48625977 142.46114258 -82.96836914 141.62711914 -83.46508789 140.76782227 C-87.44228984 133.35806704 -89.69421786 125.34439246 -92.00415039 117.29516602 C-92.27569946 116.42154419 -92.27569946 116.42154419 -92.55273438 115.53027344 C-93.62131864 110.23936541 -93.27129001 104.67723203 -93.29931641 99.29101562 C-93.31072523 97.77171432 -93.33099634 96.25244945 -93.36083984 94.73339844 C-93.79306325 72.68517557 -86.21184931 54.6067144 -74.00415039 36.29516602 C-73.34415039 36.29516602 -72.68415039 36.29516602 -72.00415039 36.29516602 C-71.75665039 35.73829102 -71.50915039 35.18141602 -71.25415039 34.60766602 C-68.32331172 29.18561447 -63.99300572 24.87092193 -59.00415039 21.29516602 C-58.34415039 21.29516602 -57.68415039 21.29516602 -57.00415039 21.29516602 C-57.00415039 20.63516602 -57.00415039 19.97516602 -57.00415039 19.29516602 C-52.85356744 16.34812201 -48.41287824 13.83604959 -44.00415039 11.29516602 C-43.17012695 10.81305664 -42.33610352 10.33094727 -41.47680664 9.83422852 C-34.06705142 5.85702657 -26.05337683 3.60509855 -18.00415039 1.29516602 C-17.13052856 1.02361694 -17.13052856 1.02361694 -16.23925781 0.74658203 C-10.94834979 -0.32200223 -5.3862164 0.0280264 0 0 Z " fill="#F7F7EF" transform="translate(93.004150390625,-0.295166015625)"/>
<path d="M0 0 C1.37719007 0.00373793 2.75438284 0.00658121 4.13157654 0.00857544 C7.7269344 0.01615056 11.32212636 0.03574509 14.91741943 0.0579834 C18.59791826 0.07857503 22.27844434 0.08760541 25.95898438 0.09765625 C33.15892916 0.11899789 40.35873806 0.1530582 47.55859375 0.1953125 C46.46316508 8.69905239 43.51556313 15.24063995 36.62109375 20.6328125 C29.41169978 25.49400387 22.39568818 27.25031525 13.71484375 27.40625 C12.63332031 27.43460938 11.55179687 27.46296875 10.4375 27.4921875 C8.18506284 27.54426697 5.93243162 27.5885394 3.6796875 27.625 C-3.04416667 27.81733909 -7.91122945 28.22657994 -13.234375 32.703125 C-13.69457031 33.23679688 -14.15476562 33.77046875 -14.62890625 34.3203125 C-15.33080078 35.09761719 -15.33080078 35.09761719 -16.046875 35.890625 C-18.11797431 39.12216415 -18.11797431 39.12216415 -20.44140625 47.1953125 C-6.25140625 47.1953125 7.93859375 47.1953125 22.55859375 47.1953125 C21.20374372 56.67926269 17.92930991 61.65456222 10.6171875 67.72265625 C5.03809687 71.71377042 -0.83823065 73.32490487 -7.640625 73.29296875 C-9.45336914 73.28813477 -9.45336914 73.28813477 -11.30273438 73.28320312 C-13.19668945 73.27063477 -13.19668945 73.27063477 -15.12890625 73.2578125 C-17.04026367 73.25104492 -17.04026367 73.25104492 -18.99023438 73.24414062 C-22.14067189 73.23234123 -25.29101574 73.21587847 -28.44140625 73.1953125 C-28.56386719 74.34386719 -28.68632813 75.49242188 -28.8125 76.67578125 C-30.4921256 89.95796836 -34.58347743 102.31181682 -44.8984375 111.34765625 C-52.78533118 117.27191279 -59.72252145 118.53124535 -69.44140625 118.1953125 C-67.98007111 110.13678171 -65.98787564 102.22729247 -63.92749023 94.30615234 C-63.37298144 92.17251505 -62.82392847 90.03752304 -62.27539062 87.90234375 C-61.92349654 86.54158401 -61.57129453 85.18090386 -61.21875 83.8203125 C-60.90156006 82.59570312 -60.58437012 81.37109375 -60.25756836 80.109375 C-59.44140625 77.1953125 -59.44140625 77.1953125 -58.44140625 75.1953125 C-60.81838544 75.96042158 -63.19285846 76.73218686 -65.56640625 77.5078125 C-66.2315625 77.72115234 -66.89671875 77.93449219 -67.58203125 78.15429688 C-71.74309684 79.52092136 -75.52479713 81.21376397 -79.44140625 83.1953125 C-80.10140625 83.1953125 -80.76140625 83.1953125 -81.44140625 83.1953125 C-80.95106274 73.87878583 -74.3250149 66.41077436 -67.88671875 60.234375 C-64.67308067 57.55463206 -61.27688465 55.47742935 -57.60546875 53.484375 C-53.39922013 50.97884784 -52.04637972 48.72782727 -50.79296875 44.00390625 C-50.509375 42.97587891 -50.22578125 41.94785156 -49.93359375 40.88867188 C-49.36278673 38.74557436 -48.79246136 36.60234849 -48.22265625 34.45898438 C-44.66384389 21.56229726 -39.8081246 11.38636293 -28.00390625 4.3203125 C-19.35131804 -0.52242767 -9.59667496 -0.07563613 0 0 Z " fill="#0D3369" transform="translate(113.44140625,41.8046875)"/>
<path d="M0 0 C1.24090897 0.00007553 2.48181793 0.00015106 3.7603302 0.00022888 C5.10413656 0.00533467 6.44794251 0.01055065 7.79174805 0.01586914 C9.17465666 0.01773574 10.55756595 0.0191585 11.94047546 0.02015686 C15.56871385 0.02396302 19.1969118 0.03377696 22.82513428 0.04486084 C26.53209893 0.05511594 30.23907015 0.05966324 33.94604492 0.06469727 C41.21103726 0.07540104 48.47599635 0.09245449 55.7409668 0.11352539 C54.64553813 8.61726528 51.69793618 15.15885284 44.8034668 20.55102539 C37.59407282 25.41221676 30.57806123 27.16852814 21.8972168 27.32446289 C20.81569336 27.35282227 19.73416992 27.38118164 18.61987305 27.41040039 C16.36743589 27.46247986 14.11480467 27.50675229 11.86206055 27.54321289 C5.13820637 27.73555199 0.2711436 28.14479283 -5.05200195 32.62133789 C-8.90584344 37.09049861 -10.78609674 41.41558695 -12.2590332 47.11352539 C-13.16524414 47.10192383 -14.07145508 47.09032227 -15.00512695 47.07836914 C-28.89583818 46.69279624 -28.89583818 46.69279624 -41.63012695 51.37133789 C-42.16766602 51.61625977 -42.70520508 51.86118164 -43.2590332 52.11352539 C-43.9190332 51.78352539 -44.5790332 51.45352539 -45.2590332 51.11352539 C-44.78723633 49.60725586 -44.78723633 49.60725586 -44.3059082 48.07055664 C-44.10102783 47.41514893 -43.89614746 46.75974121 -43.68505859 46.08447266 C-43.23032309 44.63257069 -42.77374751 43.18124388 -42.31542969 41.73046875 C-41.24224457 38.32176968 -40.20433488 34.91669592 -39.24731445 31.47290039 C-36.08197571 20.20055481 -30.93131738 11.96472668 -21.2590332 5.11352539 C-14.34175508 1.55195064 -7.76694344 -0.01581862 0 0 Z " fill="#0C3369" transform="translate(105.259033203125,41.886474609375)"/>
<path d="M0 0 C1.25244003 0.02361099 2.50488007 0.04722198 3.79527283 0.07154846 C7.09473844 0.13478651 10.3940483 0.20303832 13.69335938 0.27380371 C17.0721823 0.345012 20.45113291 0.40951267 23.83007812 0.47460938 C30.43763355 0.60325095 37.04502813 0.73851272 43.65234375 0.87890625 C42.42773886 10.17375859 38.91060857 15.43147571 31.7109375 21.40625 C26.21435424 25.33834087 20.38072709 27.00928861 13.671875 26.9765625 C12.50849609 26.97333984 11.34511719 26.97011719 10.14648438 26.96679688 C8.93154297 26.95841797 7.71660156 26.95003906 6.46484375 26.94140625 C5.23830078 26.93689453 4.01175781 26.93238281 2.74804688 26.92773438 C-0.28390293 26.9159369 -3.31575531 26.89947546 -6.34765625 26.87890625 C-5.47265625 21.00390625 -5.47265625 21.00390625 -4.34765625 19.87890625 C-2.74613227 19.7697968 -1.14026869 19.72307409 0.46484375 19.703125 C1.95564453 19.66735352 1.95564453 19.66735352 3.4765625 19.63085938 C5.56230456 19.58852882 7.64829768 19.55693901 9.734375 19.53710938 C17.96440897 19.30996466 24.29999629 17.80329446 30.58984375 12.31640625 C32.74531286 9.86295899 32.74531286 9.86295899 34.65234375 6.87890625 C27.89337306 6.94642641 21.13495738 7.03642974 14.37646484 7.14135742 C12.08193581 7.17441283 9.78732925 7.2025037 7.49267578 7.2253418 C4.17577368 7.25924662 0.85956983 7.31157804 -2.45703125 7.3671875 C-3.97185089 7.37677238 -3.97185089 7.37677238 -5.51727295 7.3865509 C-20.57288545 7.69061172 -34.3626762 12.39324348 -45.34765625 22.87890625 C-42.04765625 22.54890625 -38.74765625 22.21890625 -35.34765625 21.87890625 C-35.89453125 25.20703125 -35.89453125 25.20703125 -37.34765625 28.87890625 C-39.94482603 30.20855776 -41.83654036 30.94525183 -44.59765625 31.62890625 C-49.46092397 32.97609829 -53.84640221 34.56169263 -58.34765625 36.87890625 C-59.00765625 36.87890625 -59.66765625 36.87890625 -60.34765625 36.87890625 C-59.8576377 27.56855389 -53.23479527 20.07102862 -46.77734375 13.91796875 C-40.38130976 8.55023605 -31.88885805 2.87890625 -23.34765625 2.87890625 C-23.01765625 2.21890625 -22.68765625 1.55890625 -22.34765625 0.87890625 C-14.90610117 -0.3836875 -7.5244236 -0.16946943 0 0 Z " fill="#B31531" transform="translate(92.34765625,88.12109375)"/>
<path d="M0 0 C1.07345673 0.0028299 2.14691345 0.00565979 3.25289917 0.00857544 C6.64528055 0.01967428 10.03738737 0.04475936 13.4296875 0.0703125 C15.74478782 0.08035562 18.05989233 0.08947912 20.375 0.09765625 C26.01832114 0.11957977 31.6614847 0.15295318 37.3046875 0.1953125 C35.89228248 3.9842862 34.861526 5.99240405 31.5546875 8.3828125 C30.89984375 8.87136719 30.245 9.35992187 29.5703125 9.86328125 C23.0298941 13.7085962 16.80395532 13.43837344 9.4296875 13.3203125 C8.35976562 13.31128906 7.28984375 13.30226563 6.1875 13.29296875 C3.55966311 13.26950592 0.93229344 13.23667709 -1.6953125 13.1953125 C-1.3653125 10.5553125 -1.0353125 7.9153125 -0.6953125 5.1953125 C-3.0053125 4.8653125 -5.3153125 4.5353125 -7.6953125 4.1953125 C-7.78619141 5.15244141 -7.78619141 5.15244141 -7.87890625 6.12890625 C-7.96269531 6.95519531 -8.04648438 7.78148438 -8.1328125 8.6328125 C-8.21402344 9.45652344 -8.29523438 10.28023437 -8.37890625 11.12890625 C-8.6953125 13.1953125 -8.6953125 13.1953125 -9.6953125 14.1953125 C-12.22580652 14.26844817 -14.72836087 14.28778777 -17.2578125 14.2578125 C-17.96873047 14.25330078 -18.67964844 14.24878906 -19.41210938 14.24414062 C-21.17321263 14.23232114 -22.93427286 14.21438513 -24.6953125 14.1953125 C-24.6953125 12.5453125 -24.6953125 10.8953125 -24.6953125 9.1953125 C-27.65331778 9.90299608 -27.65331778 9.90299608 -30.6953125 11.1953125 C-30.97375 11.8553125 -31.2521875 12.5153125 -31.5390625 13.1953125 C-32.6953125 15.1953125 -32.6953125 15.1953125 -35.296875 16.0234375 C-36.79347656 16.23226562 -36.79347656 16.23226562 -38.3203125 16.4453125 C-39.32320312 16.59484375 -40.32609375 16.744375 -41.359375 16.8984375 C-42.51566406 17.04539062 -42.51566406 17.04539062 -43.6953125 17.1953125 C-36.8845603 7.66025942 -25.79169741 2.79048945 -14.52301025 0.60992432 C-9.68312718 -0.09972462 -4.88239126 -0.04940082 0 0 Z " fill="#F3ECE7" transform="translate(89.6953125,94.8046875)"/>
<path d="M0 0 C-0.886875 0.825 -1.77375 1.65 -2.6875 2.5 C-7.62216133 8.25904005 -9.07030302 15.83024721 -11 23 C-11.19899902 23.72574219 -11.39799805 24.45148438 -11.60302734 25.19921875 C-12.77006614 29.4582891 -13.89011745 33.72489684 -15 38 C-22.92 38.99 -22.92 38.99 -31 40 C-30.34047385 27.68884515 -27.26388401 15.8014902 -18.3359375 6.9921875 C-6.39060569 -3.19530284 -6.39060569 -3.19530284 0 0 Z " fill="#F1F2EC" transform="translate(101,50)"/>
<path d="M0 0 C1.83784695 0.03013661 3.67574148 0.05750589 5.51367188 0.08203125 C9.98946746 0.14773696 14.46295401 0.25105136 18.9375 0.375 C15.57114401 6.29582612 11.53908307 10.14162777 5.21240234 12.75927734 C0.16289068 14.12597282 -5.17799725 13.83539301 -10.375 13.875 C-18.79138326 13.939777 -26.12908873 14.40550452 -34.0625 17.375 C-32.98999646 11.25966732 -30.45614309 7.17989549 -25.66015625 3.20703125 C-18.12174822 -1.69984506 -8.62134291 -0.24599256 0 0 Z " fill="#F1F2ED" transform="translate(133.0625,48.625)"/>
<path d="M0 0 C5.61 0 11.22 0 17 0 C14.20879729 13.95601355 11.08008799 26.4403948 -1 35 C-4.22791555 37.1519437 -5.28400809 37.20086443 -9 37 C-7.60300719 28.15850605 -5.38597876 19.62060526 -3 11 C-2.41615444 8.85430598 -1.83275902 6.70848937 -1.25 4.5625 C-0.8375 3.056875 -0.425 1.55125 0 0 Z " fill="#EFEEE9" transform="translate(62,115)"/>
<path d="M0 0 C5.28 0 10.56 0 16 0 C15.67 1.98 15.34 3.96 15 6 C9.72 6 4.44 6 -1 6 C-0.67 4.02 -0.34 2.04 0 0 Z " fill="#AF0E2A" transform="translate(64,109)"/>
<path d="M0 0 C0.66 0.33 1.32 0.66 2 1 C2 1.99 2 2.98 2 4 C0.34467377 5.01866229 -1.32260138 6.01810813 -3 7 C-3.33 7.99 -3.66 8.98 -4 10 C-7.63 10.66 -11.26 11.32 -15 12 C-11.03536752 6.44951453 -6.23400481 2.83564466 0 0 Z " fill="#F0E4E1" transform="translate(61,100)"/>
<path d="M0 0 C0.66 0.33 1.32 0.66 2 1 C-0.64 3.64 -3.28 6.28 -6 9 C-6 6 -6 6 -3.5625 3.375 C-2.716875 2.59125 -1.87125 1.8075 -1 1 C-0.67 0.67 -0.34 0.34 0 0 Z " fill="#DCE1E1" transform="translate(108,52)"/>
</svg>
